<?xml version="1.0" standalone="no"?><!DOCTYPE svg PUBLIC "-//W3C//DTD SVG 1.1//EN" "http://www.w3.org/Graphics/SVG/1.1/DTD/svg11.dtd"><svg t="1732579424625" class="icon" viewBox="0 0 1024 1024" version="1.1" xmlns="http://www.w3.org/2000/svg" p-id="2383" xmlns:xlink="http://www.w3.org/1999/xlink" width="200" height="200"><path d="M304.64 331.776H57.856C26.112 331.776 0 357.376 0 389.632v244.736c0 31.744 26.112 57.856 57.856 57.856h246.272c32.256 0 57.856-25.6 57.856-57.856v-2.56s-94.208-38.912-141.824-61.952c-31.744 38.912-73.216 62.976-115.712 62.976-72.192 0-96.768-62.976-62.464-104.448 7.68-9.216 19.968-17.408 39.936-22.528 30.72-7.68 79.872 4.608 125.952 19.968 8.704-15.872 15.36-32.256 20.48-49.664H86.528v-14.336h73.216v-25.6H71.168v-14.336h88.576v-36.352s0-6.144 6.144-6.144h35.84v42.496h87.552v14.336H201.728v25.6h71.68c-6.656 27.648-17.408 53.248-30.208 75.776 21.504 7.68 40.96 15.36 55.808 19.968 52.224 17.408 64 18.432 64 18.432V389.632c-0.512-32.256-26.112-57.856-58.368-57.856z" fill="#108EE9" p-id="2384"></path><path d="M88.064 527.36c-9.216 1.024-26.112 5.12-35.328 13.312-27.648 24.064-11.264 68.096 45.056 68.096 32.768 0 65.536-20.992 91.136-54.272-36.352-17.408-67.072-30.208-100.864-27.136z" fill="#108EE9" p-id="2385"></path><path d="M611.328 540.16c-30.208-10.752-54.272-23.04-73.216-34.816 27.136-19.968 51.2-47.616 60.928-83.968h-63.488v-22.528H609.28v-14.336h-73.728v-28.672h-32.768c-3.584 0-6.656 3.072-6.656 6.656v22.016H422.4v14.336h73.216v22.528h-61.44v14.336h123.392s-6.656 26.624-40.448 55.296c-30.208-23.04-40.448-40.96-40.448-40.96h-33.28c13.312 23.04 32.256 41.472 52.736 56.32-18.944 12.288-43.008 24.064-74.752 33.28v16.896s48.64-9.216 95.744-36.864c47.104 27.136 94.208 36.864 94.208 36.864v-16.384zM879.104 388.096H983.04v20.48h36.864v-24.064c0-5.632-4.096-9.728-9.728-9.728h-59.904v-18.944H911.36v18.944h-69.632v34.304h36.864v-20.992zM668.672 582.144h14.848v82.432h-14.848zM473.088 582.144l-30.208 82.432h15.36l5.632-16.384h30.208l5.632 16.384h15.36l-30.208-82.432h-11.776z m-5.632 55.296l11.776-34.304 11.264 34.304h-23.04zM579.072 582.144h-14.848v82.432h49.664v-11.264h-34.816zM993.28 582.144l-15.872 35.328-16.384-35.328h-16.384l25.088 48.64v33.792h14.848v-33.792l25.088-48.64H993.28zM868.352 582.144l-30.208 82.432h15.36l5.632-16.384h30.208l5.632 16.384h15.36l-30.208-82.432h-11.776z m-5.12 55.296l11.776-34.304 11.264 34.304h-23.04zM1012.224 509.44c-0.512-2.56-3.072-4.096-5.632-4.096h-30.72l8.704 30.208h-36.352V476.672h71.168v-13.824h-71.168V435.2h71.168v-13.824h-177.664V435.2h71.168v27.648h-71.168v13.824h71.168v58.368h-71.168v13.824H1024v-0.512l-11.776-38.912zM654.336 356.864l-37.888 89.6h29.184v107.008h31.744V411.648H665.6l24.064-54.784h-35.328zM735.744 430.592c-1.024-2.56-3.584-4.096-6.656-4.096H701.44l21.504 67.584h32.768l-19.968-63.488z" fill="#3E3A38" p-id="2386"></path><path d="M805.888 358.912h-33.28v34.304h-81.92v13.824h81.92v123.904c0 3.072-2.56 5.12-5.12 5.12h-16.896v14.336h43.008c6.656-0.512 12.288-6.144 12.288-12.8V407.04h13.312v-13.824h-13.312v-34.304zM775.68 582.144h-32.256v82.432h14.848v-31.744h17.408c15.872 0 27.136-10.24 27.136-25.088s-11.264-25.6-27.136-25.6z m-1.024 39.424h-16.384v-28.16h16.384c8.192 0 13.312 7.168 13.312 14.336 0 6.656-4.608 13.824-13.312 13.824z" fill="#3E3A38" p-id="2387"></path></svg>