<?xml version="1.0" standalone="no"?><!DOCTYPE svg PUBLIC "-//W3C//DTD SVG 1.1//EN" "http://www.w3.org/Graphics/SVG/1.1/DTD/svg11.dtd"><svg t="1728205181657" class="icon" viewBox="0 0 1024 1024" version="1.1" xmlns="http://www.w3.org/2000/svg" p-id="10318" xmlns:xlink="http://www.w3.org/1999/xlink" width="200" height="200"><path d="M512 34.133333c263.918933 0 477.866667 213.947733 477.866667 477.866667s-213.947733 477.866667-477.866667 477.866667S34.133333 775.918933 34.133333 512 248.081067 34.133333 512 34.133333z m123.7248 179.2H534.980267v408.2176c0 46.779733-36.104533 84.7616-80.554667 84.7616-44.509867 0-80.6144-37.973333-80.6144-84.7616 0-46.848 36.104533-84.7616 80.6144-84.7616 9.685333 0 19.310933 1.809067 28.347733 5.376V433.297067a170.427733 170.427733 0 0 0-29.098666-2.5088C353.911467 430.7968 273.066667 515.7888 273.066667 620.731733 273.066667 725.674667 353.92 810.666667 453.666133 810.666667c99.754667 0 180.599467-84.992 180.599467-189.934934V415.232a226.107733 226.107733 0 0 0 135.8592 45.3888l0.699733-0.059733V355.3792C696.2176 355.3792 635.733333 291.7888 635.733333 213.333333z" fill="#111111" p-id="10319"></path></svg>