<?xml version="1.0" standalone="no"?><!DOCTYPE svg PUBLIC "-//W3C//DTD SVG 1.1//EN" "http://www.w3.org/Graphics/SVG/1.1/DTD/svg11.dtd"><svg t="1728205198383" class="icon" viewBox="0 0 1024 1024" version="1.1" xmlns="http://www.w3.org/2000/svg" p-id="11329" xmlns:xlink="http://www.w3.org/1999/xlink" width="200" height="200"><path d="M512 512m-512 0a512 512 0 1 0 1024 0 512 512 0 1 0-1024 0Z" fill="#F74E18" p-id="11330"></path><path d="M516.87619 555.885714c-26.819048 0-48.761905 21.942857-48.761904 48.761905v75.580952c0 26.819048 21.942857 48.761905 48.761904 48.761905H658.285714c26.819048 0 48.761905-21.942857 48.761905-48.761905v-75.580952c0-26.819048-21.942857-48.761905-48.761905-48.761905h-141.409524z m141.409524-51.2c26.819048 0 51.2 9.752381 68.266667 29.257143 17.066667 17.066667 29.257143 43.885714 29.257143 68.266667v78.019047c0 26.819048-9.752381 51.2-29.257143 68.266667-17.066667 17.066667-43.885714 29.257143-68.266667 29.257143h-143.847619c-26.819048 0-51.2-9.752381-68.266666-29.257143-17.066667-17.066667-29.257143-43.885714-29.257143-68.266667v-78.019047c0-26.819048 9.752381-51.2 29.257143-68.266667 17.066667-17.066667 43.885714-29.257143 68.266666-29.257143H658.285714z m-207.238095-231.619047c-29.257143 0-53.638095 14.628571-68.266667 39.009523-14.628571 24.380952-14.628571 53.638095 0 78.019048s39.009524 39.009524 68.266667 39.009524c43.885714 0 78.019048-34.133333 78.019048-78.019048 0-21.942857-9.752381-41.447619-24.380953-56.07619-12.190476-14.628571-34.133333-21.942857-53.638095-21.942857z m0-53.638096c73.142857 0 131.657143 58.514286 131.657143 131.657143s-58.514286 131.657143-131.657143 131.657143c-73.142857 0-131.657143-58.514286-131.657143-131.657143S377.904762 219.428571 451.047619 219.428571z" fill="#FFFFFF" p-id="11331"></path><path d="M641.219048 309.638095c-34.133333 0-60.952381 26.819048-60.952381 60.952381s26.819048 60.952381 60.952381 60.952381 60.952381-26.819048 60.952381-60.952381-26.819048-60.952381-60.952381-60.952381z m0-53.638095c14.628571 0 29.257143 2.438095 43.885714 9.752381 14.628571 4.87619 26.819048 14.628571 36.571428 24.380952s19.504762 21.942857 24.380953 36.571429c7.314286 12.190476 9.752381 26.819048 9.752381 41.447619s-2.438095 29.257143-9.752381 43.885714c-4.87619 14.628571-14.628571 26.819048-24.380953 36.571429-9.752381 9.752381-21.942857 19.504762-36.571428 24.380952-14.628571 4.87619-29.257143 9.752381-43.885714 9.752381-29.257143 0-58.514286-12.190476-80.457143-34.133333-21.942857-21.942857-34.133333-48.761905-34.133334-80.457143s12.190476-58.514286 34.133334-80.457143c21.942857-19.504762 51.2-31.695238 80.457143-31.695238zM331.580952 585.142857c-7.314286 0-12.190476 4.87619-12.190476 12.190476v87.771429c0 2.438095 0 4.87619 2.438095 7.314286 0 2.438095 2.438095 2.438095 4.876191 4.87619 2.438095 0 4.87619 2.438095 7.314286 2.438095 2.438095 0 4.87619 0 7.314285-2.438095l80.457143-41.447619v-26.819048L338.895238 585.142857h-7.314286z m-17.066666-60.952381c7.314286 0 14.628571 2.438095 21.942857 4.876191l131.657143 65.828571v92.647619l-131.657143 65.828572c-14.628571 7.314286-31.695238 7.314286-46.32381-2.438096-14.628571-7.314286-21.942857-24.380952-21.942857-39.009523v-138.971429c0-26.819048 21.942857-48.761905 46.32381-48.761905z" fill="#FFFFFF" p-id="11332"></path></svg>