<?xml version="1.0" standalone="no"?><!DOCTYPE svg PUBLIC "-//W3C//DTD SVG 1.1//EN" "http://www.w3.org/Graphics/SVG/1.1/DTD/svg11.dtd"><svg t="1728205150261" class="icon" viewBox="0 0 1024 1024" version="1.1" xmlns="http://www.w3.org/2000/svg" p-id="9261" xmlns:xlink="http://www.w3.org/1999/xlink" width="200" height="200"><path d="M511.801409 512.199034m-511.800967 0a511.800966 511.800966 0 1 0 1023.601933 0 511.800966 511.800966 0 1 0-1023.601933 0Z" fill="#D81E06" opacity=".1" p-id="9262"></path><path d="M227.467538 350.128728l568.32654-30.025657c0.341201 2.843339 0.341201 6.027878 0.341201 8.871217v343.077248l-568.32654 32.24346C227.467538 701.451658 227.467538 698.267118 227.467538 695.42378V350.128728z m508.332094 198.692508V522.036986l-85.300162 4.776809v-13.648026l-41.05781 2.274671V528.860999l-85.300161 4.776809v26.841117l85.300161-4.719942v59.368912l41.05781-2.217804V553.598045l85.300162-4.776809zM524.141499 499.290276v26.841117l29.343255-1.535403 75.519076-37.304603 77.111345 28.433387 29.684457-1.59227v-26.841117l-19.619038 1.251069-50.838896-18.595435 67.614595-33.210196v-47.085689l-41.057811 2.274671-94.796912 5.345476-32.868996-15.467762-42.024546 66.306658 34.745599 12.624424 22.462376-35.371133 112.141278-6.255345v6.596545l-62.553451 30.651192-48.621092-18.026768-16.491364 24.964514 28.774587 10.74782-49.246626 24.33898-19.334703 0.909868z m189.536957 58.800244l-41.05781 2.160938 30.025656 49.929027 41.057811-2.217804-30.025657-49.872161z m-189.252624 62.553452l41.057811-2.274671 27.523519-53.0567-41.057811 2.274671-27.523519 53.0567zM426.842448 559.910257l32.527795 63.804521 45.493419-2.217805-32.527795-63.80452-45.493419 2.217804z m-42.65008-46.460154l-33.210196-42.024546-45.152219 2.559005 33.153329 41.683345 45.209086-2.217804z m0-52.431166l-33.210196-41.683345-45.152219 2.502138 33.153329 42.024546 45.209086-2.843339z m39.12434 91.612373l75.860277-4.435608v-26.841118l-50.611429 2.843339V405.744433l-41.000944 2.217804v118.45349l-120.04576 6.937747v26.841117l83.366691-4.719942-36.963404 48.677958-45.152218 2.843339v26.841117l76.14461-4.435608 58.402177-76.770145z" fill="#E62318" p-id="9263"></path></svg>